<?xml version="1.0" encoding="UTF-8" standalone="no"?>
<svg
   xmlns:dc="http://purl.org/dc/elements/1.1/"
   xmlns:cc="http://creativecommons.org/ns#"
   xmlns:rdf="http://www.w3.org/1999/02/22-rdf-syntax-ns#"
   xmlns:svg="http://www.w3.org/2000/svg"
   xmlns="http://www.w3.org/2000/svg"
   xmlns:sodipodi="http://sodipodi.sourceforge.net/DTD/sodipodi-0.dtd"
   xmlns:inkscape="http://www.inkscape.org/namespaces/inkscape"
   width="200mm"
   height="70mm"
   viewBox="0 0 200 70.000001"
   version="1.1"
   id="svg8"
   inkscape:version="1.0.2 (e86c870879, 2021-01-15)"
   sodipodi:docname="reference-addon-collapsed.svg">
  <defs
     id="defs2">
    <style
       id="style833">.cls-1{fill:#e00;}</style>
    <filter
       inkscape:collect="always"
       style="color-interpolation-filters:sRGB"
       id="filter1001-8"
       x="-9.3389241e-07"
       width="1.0000019"
       y="-1.6781917e-06"
       height="1.0000035">
      <feGaussianBlur
         inkscape:collect="always"
         stdDeviation="4.1846173e-05"
         id="feGaussianBlur1003-3" />
    </filter>
  </defs>
  <sodipodi:namedview
     id="base"
     pagecolor="#ffffff"
     bordercolor="#666666"
     borderopacity="1.0"
     inkscape:pageopacity="0.0"
     inkscape:pageshadow="2"
     inkscape:zoom="0.9899495"
     inkscape:cx="124.40497"
     inkscape:cy="185.53057"
     inkscape:document-units="mm"
     inkscape:current-layer="text912"
     inkscape:document-rotation="0"
     showgrid="false"
     inkscape:window-width="2087"
     inkscape:window-height="1205"
     inkscape:window-x="26"
     inkscape:window-y="23"
     inkscape:window-maximized="0"
     showguides="true"
     inkscape:guide-bbox="true"
     fit-margin-top="0"
     fit-margin-left="0"
     fit-margin-right="0"
     fit-margin-bottom="0" />
  <metadata
     id="metadata5">
    <rdf:RDF>
      <cc:Work
         rdf:about="">
        <dc:format>image/svg+xml</dc:format>
        <dc:type
           rdf:resource="http://purl.org/dc/dcmitype/StillImage" />
        <dc:title></dc:title>
      </cc:Work>
    </rdf:RDF>
  </metadata>
  <g
     inkscape:label="Layer 1"
     inkscape:groupmode="layer"
     id="layer1"
     style="display:inline"
     transform="translate(-21.191282,-48.115993)" />
  <g
     inkscape:groupmode="layer"
     id="layer2"
     inkscape:label="Layer 2"
     style="display:inline"
     transform="translate(-21.191282,-48.115993)">
    <path
       d="m 28.407263,90.187642 c 2.051049,0 2.745217,-1.099 3.581997,-1.93366 1.705014,-1.71129 3.802208,-0.98357 3.802208,1.77632 v 12.740458 h 12.740421 c 2.757805,0 3.487626,-2.09723 1.776319,-3.802188 -0.834681,-0.83679 -1.933602,-1.53098 -1.933602,-3.58202 0,-2.27962 2.323684,-5.19891 6.29157,-5.19891 3.967875,0 6.291567,2.91929 6.291567,5.19891 0,2.05104 -1.09893,2.74523 -1.933611,3.58202 -1.711306,1.704958 -0.983583,3.802188 1.77632,3.802188 H 73.540879 V 90.030302 c 0,-2.75782 -2.097196,-3.48761 -3.802206,-1.77632 -0.836781,0.83466 -1.530952,1.93366 -3.581997,1.93366 -2.279647,0 -5.198933,-2.3237 -5.198933,-6.29157 0,-3.96795 2.919286,-6.29157 5.198933,-6.29157 2.051045,0 2.745216,1.09892 3.581997,1.93357 1.70501,1.71129 3.802206,0.98358 3.802206,-1.77632 V 65.021362 H 60.800452 c -2.757804,0 -3.487626,-2.09724 -1.77632,-3.80221 0.834681,-0.83678 1.933611,-1.53098 1.933611,-3.58201 0,-2.27962 -2.323692,-5.1989 -6.291567,-5.1989 -3.967886,0 -6.29157,2.91928 -6.29157,5.1989 0,2.05103 1.098921,2.74523 1.933602,3.58201 1.711307,1.70497 0.983584,3.80221 -1.776319,3.80221 H 35.791468 v 12.74039 c 0,2.75784 -2.097194,3.48761 -3.802208,1.77632 -0.83678,-0.83465 -1.530948,-1.93357 -3.581997,-1.93357 -2.279644,0 -5.198931,2.32362 -5.198931,6.29157 0,3.96787 2.919287,6.29157 5.198931,6.29157 z"
       id="path910"
       style="fill:#ee0000;fill-opacity:1;stroke-width:2.09719" />
    <g
       aria-label="Reference"
       transform="matrix(1.066536,0,0,1.066536,-10.612379,7.2523103)"
       id="text923"
       style="font-size:25.4693px;line-height:1;font-family:sans-serif;letter-spacing:0px;stroke-width:0.684796;filter:url(#filter1001-8)">
      <path
         d="m 89.488854,72.471756 v -17.82851 h 9.118009 q 1.375343,0 2.521457,0.432979 1.17159,0.407508 1.98661,1.171587 0.84049,0.73861 1.29893,1.782851 0.48392,1.044242 0.48392,2.292237 0,1.680974 -0.91689,3.005378 -0.9169,1.324403 -2.41959,2.012074 l 3.8968,7.131404 h -4.8901 l -3.361948,-6.494671 h -3.336478 v 6.494671 z m 8.710501,-14.084523 h -4.329781 v 4.02415 h 4.329781 q 1.018772,0 1.630035,-0.560325 0.63673,-0.560324 0.63673,-1.45175 0,-0.891425 -0.63673,-1.45175 -0.611263,-0.560325 -1.630035,-0.560325 z"
         style="font-style:normal;font-variant:normal;font-weight:900;font-stretch:normal;font-size:25.4693px;font-family:'Red Hat Display';-inkscape-font-specification:'Red Hat Display Heavy';stroke-width:0.684796"
         id="path923" />
      <path
         d="m 118.52381,70.688905 q -1.27347,1.069711 -2.62334,1.553627 -1.3244,0.483917 -3.00538,0.483917 -1.52815,0 -2.87803,-0.534855 -1.34987,-0.534856 -2.34317,-1.47722 -0.96784,-0.942364 -1.55363,-2.215829 -0.56032,-1.298934 -0.56032,-2.750684 0,-1.45175 0.53485,-2.725215 0.56033,-1.298934 1.50269,-2.241298 0.94236,-0.942364 2.21583,-1.47722 1.29893,-0.534855 2.77615,-0.534855 1.47722,0 2.72522,0.560325 1.24799,0.560324 2.13942,1.528157 0.91689,0.967834 1.42628,2.343176 0.50938,1.349873 0.50938,2.928969 v 1.018772 h -9.60192 q 0.40751,0.942364 1.27346,1.553628 0.86596,0.585794 2.03755,0.585794 0.84048,0 1.52816,-0.254693 0.68767,-0.280163 1.17158,-0.764079 z m -6.01076,-8.557685 q -1.01877,0 -1.75738,0.560325 -0.73861,0.560325 -1.04424,1.579097 h 5.62872 q -0.3311,-0.967834 -1.09518,-1.553628 -0.73861,-0.585794 -1.73192,-0.585794 z"
         style="font-style:normal;font-variant:normal;font-weight:900;font-stretch:normal;font-size:25.4693px;font-family:'Red Hat Display';-inkscape-font-specification:'Red Hat Display Heavy';stroke-width:0.684796"
         id="path925" />
      <path
         d="m 120.001,58.998497 h 2.95444 v -0.815018 q 0,-2.368645 1.40081,-3.64211 1.42628,-1.273465 4.07509,-1.273465 0.53485,0 1.14612,0.07641 0.63673,0.07641 1.04424,0.178285 v 3.412886 q -0.48392,-0.101877 -0.86596,-0.127346 -0.35657,-0.05094 -0.76408,-0.05094 -0.94236,0 -1.42628,0.38204 -0.48391,0.35657 -0.48391,1.120649 v 0.73861 h 3.54023 v 3.438355 h -3.54023 v 10.034904 h -4.12603 V 62.436852 H 120.001 Z"
         style="font-style:normal;font-variant:normal;font-weight:900;font-stretch:normal;font-size:25.4693px;font-family:'Red Hat Display';-inkscape-font-specification:'Red Hat Display Heavy';stroke-width:0.684796"
         id="path927" />
      <path
         d="m 144.4515,70.688905 q -1.27347,1.069711 -2.62334,1.553627 -1.3244,0.483917 -3.00538,0.483917 -1.52815,0 -2.87803,-0.534855 -1.34987,-0.534856 -2.34317,-1.47722 -0.96784,-0.942364 -1.55363,-2.215829 -0.56032,-1.298934 -0.56032,-2.750684 0,-1.45175 0.53485,-2.725215 0.56033,-1.298934 1.50269,-2.241298 0.94236,-0.942364 2.21583,-1.47722 1.29893,-0.534855 2.77615,-0.534855 1.47722,0 2.72522,0.560325 1.24799,0.560324 2.13942,1.528157 0.91689,0.967834 1.42628,2.343176 0.50939,1.349873 0.50939,2.928969 v 1.018772 h -9.60193 q 0.40751,0.942364 1.27346,1.553628 0.86596,0.585794 2.03755,0.585794 0.84049,0 1.52816,-0.254693 0.68767,-0.280163 1.17158,-0.764079 z m -6.01076,-8.557685 q -1.01877,0 -1.75738,0.560325 -0.73861,0.560325 -1.04424,1.579097 h 5.62872 q -0.3311,-0.967834 -1.09518,-1.553628 -0.73861,-0.585794 -1.73192,-0.585794 z"
         style="font-style:normal;font-variant:normal;font-weight:900;font-stretch:normal;font-size:25.4693px;font-family:'Red Hat Display';-inkscape-font-specification:'Red Hat Display Heavy';stroke-width:0.684796"
         id="path929" />
      <path
         d="M 147.2531,72.471756 V 58.998497 h 4.12603 v 1.349873 q 0.6622,-0.789549 1.55363,-1.222527 0.89142,-0.432978 1.9866,-0.432978 0.5858,0.02547 0.94237,0.101877 0.35657,0.05094 0.61126,0.229224 v 3.591171 q -0.40751,-0.178285 -0.9169,-0.280162 -0.50938,-0.127347 -1.04424,-0.127347 -0.96783,0 -1.80832,0.458448 -0.81502,0.458447 -1.3244,1.247995 v 8.557685 z"
         style="font-style:normal;font-variant:normal;font-weight:900;font-stretch:normal;font-size:25.4693px;font-family:'Red Hat Display';-inkscape-font-specification:'Red Hat Display Heavy';stroke-width:0.684796"
         id="path931" />
      <path
         d="m 170.09904,70.688905 q -1.27347,1.069711 -2.62334,1.553627 -1.3244,0.483917 -3.00538,0.483917 -1.52816,0 -2.87803,-0.534855 -1.34987,-0.534856 -2.34317,-1.47722 -0.96784,-0.942364 -1.55363,-2.215829 -0.56033,-1.298934 -0.56033,-2.750684 0,-1.45175 0.53486,-2.725215 0.56032,-1.298934 1.50269,-2.241298 0.94236,-0.942364 2.21583,-1.47722 1.29893,-0.534855 2.77615,-0.534855 1.47722,0 2.72521,0.560325 1.248,0.560324 2.13943,1.528157 0.91689,0.967834 1.42628,2.343176 0.50938,1.349873 0.50938,2.928969 v 1.018772 h -9.60192 q 0.40751,0.942364 1.27346,1.553628 0.86596,0.585794 2.03755,0.585794 0.84048,0 1.52815,-0.254693 0.68767,-0.280163 1.17159,-0.764079 z m -6.01076,-8.557685 q -1.01877,0 -1.75738,0.560325 -0.73861,0.560325 -1.04424,1.579097 h 5.62871 q -0.3311,-0.967834 -1.09518,-1.553628 -0.73861,-0.585794 -1.73191,-0.585794 z"
         style="font-style:normal;font-variant:normal;font-weight:900;font-stretch:normal;font-size:25.4693px;font-family:'Red Hat Display';-inkscape-font-specification:'Red Hat Display Heavy';stroke-width:0.684796"
         id="path933" />
      <path
         d="M 172.90064,72.471756 V 58.998497 h 4.12603 v 0.916894 q 0.73861,-0.560324 1.6555,-0.865956 0.94236,-0.305631 1.96114,-0.305631 2.36864,0 3.87133,1.528158 1.50269,1.528158 1.50269,3.896802 v 8.302992 h -4.12603 v -7.742667 q 0,-1.09518 -0.68767,-1.757382 -0.6622,-0.687671 -1.75738,-0.687671 -0.78955,0 -1.40081,0.280163 -0.61127,0.280162 -1.01877,0.789548 v 9.118009 z"
         style="font-style:normal;font-variant:normal;font-weight:900;font-stretch:normal;font-size:25.4693px;font-family:'Red Hat Display';-inkscape-font-specification:'Red Hat Display Heavy';stroke-width:0.684796"
         id="path935" />
      <path
         d="m 195.18623,69.160747 q 0.84048,0 1.55362,-0.35657 0.71314,-0.35657 1.37535,-1.09518 l 2.44505,2.54693 q -1.01877,1.171588 -2.49599,1.833789 -1.47722,0.636733 -3.08179,0.636733 -1.50269,0 -2.82709,-0.534855 -1.29894,-0.534856 -2.26677,-1.47722 -0.94236,-0.942364 -1.50269,-2.215829 -0.53485,-1.273465 -0.53485,-2.750684 0,-1.477219 0.53485,-2.750684 0.56033,-1.298935 1.50269,-2.215829 0.96783,-0.942364 2.26677,-1.47722 1.3244,-0.560324 2.82709,-0.560324 1.65551,0 3.15819,0.662201 1.50269,0.662202 2.54693,1.83379 l -2.52146,2.623338 q -0.71314,-0.789548 -1.45175,-1.171588 -0.73861,-0.382039 -1.63003,-0.382039 -1.32441,0 -2.2413,0.993302 -0.89143,0.993303 -0.89143,2.445053 0,1.45175 0.9169,2.445053 0.94236,0.967833 2.31771,0.967833 z"
         style="font-style:normal;font-variant:normal;font-weight:900;font-stretch:normal;font-size:25.4693px;font-family:'Red Hat Display';-inkscape-font-specification:'Red Hat Display Heavy';stroke-width:0.684796"
         id="path937" />
      <path
         d="m 214.03348,70.688905 q -1.27346,1.069711 -2.62333,1.553627 -1.32441,0.483917 -3.00538,0.483917 -1.52816,0 -2.87803,-0.534855 -1.34987,-0.534856 -2.34318,-1.47722 -0.96783,-0.942364 -1.55362,-2.215829 -0.56033,-1.298934 -0.56033,-2.750684 0,-1.45175 0.53486,-2.725215 0.56032,-1.298934 1.50269,-2.241298 0.94236,-0.942364 2.21582,-1.47722 1.29894,-0.534855 2.77616,-0.534855 1.47722,0 2.72521,0.560325 1.248,0.560324 2.13942,1.528157 0.9169,0.967834 1.42628,2.343176 0.50939,1.349873 0.50939,2.928969 v 1.018772 h -9.60192 q 0.4075,0.942364 1.27346,1.553628 0.86596,0.585794 2.03754,0.585794 0.84049,0 1.52816,-0.254693 0.68767,-0.280163 1.17159,-0.764079 z m -6.01075,-8.557685 q -1.01877,0 -1.75738,0.560325 -0.73861,0.560325 -1.04424,1.579097 h 5.62871 q -0.3311,-0.967834 -1.09518,-1.553628 -0.73861,-0.585794 -1.73191,-0.585794 z"
         style="font-style:normal;font-variant:normal;font-weight:900;font-stretch:normal;font-size:25.4693px;font-family:'Red Hat Display';-inkscape-font-specification:'Red Hat Display Heavy';stroke-width:0.684796"
         id="path939" />
    </g>
    <g
       aria-label="Addon"
       id="text912"
       style="font-size:28.2222px;line-height:1.25;font-family:sans-serif;letter-spacing:0px;stroke-width:0.264583">
      <path
         d="m 81.390916,113.39996 8.184438,-19.755537 h 3.471331 l 8.071545,19.755537 h -3.217327 l -2.285998,-5.78555 h -8.833549 l -2.31422,5.78555 z m 6.378217,-8.24088 h 6.886217 l -3.443108,-8.664215 z"
         style="font-style:normal;font-variant:normal;font-weight:500;font-stretch:normal;font-size:28.2222px;font-family:'Red Hat Display';-inkscape-font-specification:'Red Hat Display Medium';stroke-width:0.264583"
         id="path942" />
      <path
         d="m 113.05617,113.39996 v -1.35466 q -0.90311,0.762 -2.032,1.18533 -1.12889,0.39511 -2.37067,0.39511 -1.524,0 -2.85044,-0.56444 -1.32644,-0.59267 -2.31422,-1.58045 -0.95956,-0.98777 -1.524,-2.34244 -0.56444,-1.38289 -0.56444,-2.93511 0,-1.55222 0.56444,-2.90688 0.56444,-1.35467 1.524,-2.34245 0.98778,-0.987774 2.34244,-1.552218 1.35467,-0.592666 2.87867,-0.592666 1.18533,0 2.28599,0.366888 1.10067,0.366889 2.032,1.044226 v -6.575777 l 2.82222,-0.620888 v 20.376425 z m -8.89,-7.22488 q 0,2.11667 1.41111,3.556 1.41111,1.43933 3.47133,1.43933 1.21356,0 2.22956,-0.45156 1.04422,-0.45155 1.74977,-1.26999 v -6.51933 q -0.70555,-0.79022 -1.74977,-1.24178 -1.04422,-0.45155 -2.22956,-0.45155 -2.06022,0 -3.47133,1.41111 -1.41111,1.41111 -1.41111,3.52777 z"
         style="font-style:normal;font-variant:normal;font-weight:500;font-stretch:normal;font-size:28.2222px;font-family:'Red Hat Display';-inkscape-font-specification:'Red Hat Display Medium';stroke-width:0.264583"
         id="path944" />
      <path
         d="m 130.187,113.39996 v -1.35466 q -0.90311,0.762 -2.032,1.18533 -1.12889,0.39511 -2.37067,0.39511 -1.524,0 -2.85044,-0.56444 -1.32644,-0.59267 -2.31422,-1.58045 -0.95955,-0.98777 -1.524,-2.34244 -0.56444,-1.38289 -0.56444,-2.93511 0,-1.55222 0.56444,-2.90688 0.56445,-1.35467 1.524,-2.34245 0.98778,-0.987774 2.34244,-1.552218 1.35467,-0.592666 2.87867,-0.592666 1.18533,0 2.286,0.366888 1.10066,0.366889 2.03199,1.044226 v -6.575777 l 2.82222,-0.620888 v 20.376425 z m -8.89,-7.22488 q 0,2.11667 1.41111,3.556 1.41111,1.43933 3.47133,1.43933 1.21356,0 2.22956,-0.45156 1.04422,-0.45155 1.74977,-1.26999 v -6.51933 q -0.70555,-0.79022 -1.74977,-1.24178 -1.04422,-0.45155 -2.22956,-0.45155 -2.06022,0 -3.47133,1.41111 -1.41111,1.41111 -1.41111,3.52777 z"
         style="font-style:normal;font-variant:normal;font-weight:500;font-stretch:normal;font-size:28.2222px;font-family:'Red Hat Display';-inkscape-font-specification:'Red Hat Display Medium';stroke-width:0.264583"
         id="path946" />
      <path
         d="m 135.66206,106.2033 q 0,-1.55222 0.56444,-2.90688 0.59267,-1.38289 1.60867,-2.37067 1.01599,-1.015998 2.37066,-1.580442 1.38289,-0.592667 2.93511,-0.592667 1.55222,0 2.90689,0.592667 1.38288,0.564444 2.37066,1.580442 1.016,0.98778 1.58044,2.37067 0.59267,1.35466 0.59267,2.90688 0,1.58045 -0.59267,2.96333 -0.56444,1.35467 -1.58044,2.37067 -0.98778,0.98778 -2.37066,1.58044 -1.35467,0.56445 -2.90689,0.56445 -1.55222,0 -2.93511,-0.56445 -1.35467,-0.59266 -2.37066,-1.58044 -1.016,-1.016 -1.60867,-2.37067 -0.56444,-1.38288 -0.56444,-2.96333 z m 7.47888,4.99533 q 1.94733,0 3.302,-1.43933 1.38288,-1.46755 1.38288,-3.556 0,-2.08844 -1.38288,-3.52777 -1.35467,-1.43933 -3.302,-1.43933 -1.94733,0 -3.33022,1.43933 -1.38289,1.43933 -1.38289,3.52777 0,2.08845 1.35467,3.556 1.38289,1.43933 3.35844,1.43933 z"
         style="font-style:normal;font-variant:normal;font-weight:500;font-stretch:normal;font-size:28.2222px;font-family:'Red Hat Display';-inkscape-font-specification:'Red Hat Display Medium';stroke-width:0.264583"
         id="path948" />
      <path
         d="M 153.27271,113.39996 V 99.034863 h 2.82222 v 1.439337 q 0.84666,-0.84667 1.91911,-1.270003 1.10066,-0.451556 2.39888,-0.451556 2.45534,0 4.03578,1.580439 1.58044,1.55223 1.58044,4.03578 v 9.0311 h -2.82222 v -8.55132 q 0,-1.69334 -0.98778,-2.65289 -0.95955,-0.98778 -2.56822,-0.98778 -1.12888,0 -2.06022,0.47978 -0.90311,0.47978 -1.49577,1.38289 v 10.32932 z"
         style="font-style:normal;font-variant:normal;font-weight:500;font-stretch:normal;font-size:28.2222px;font-family:'Red Hat Display';-inkscape-font-specification:'Red Hat Display Medium';stroke-width:0.264583"
         id="path950" />
    </g>
  </g>
</svg>
